<svg xmlns="http://www.w3.org/2000/svg" width="220" height="55" viewBox="0 0 220 55" fill="none"><path d="M62.8613 28.6307V0.541016H71.7055C82.7783 0.541016 84.198 13.5035 75.891 16.7457L84.0669 28.6914H78.3274L70.7654 17.414H67.7279V28.6275H62.8613V28.6307ZM67.6543 5.06542V12.8992H71.7055C77.7839 12.8992 77.7839 5.06542 71.7055 5.06542H67.6543Z" fill="white"></path><path d="M86.9668 28.6305L100.067 0.134766H100.876L113.909 28.6305H108.914L107.092 24.7136H93.7902L91.9676 28.6305H86.9668ZM104.994 20.186L100.403 10.2611L95.811 20.186H104.994Z" fill="white"></path><path d="M116.812 28.6305L129.912 0.134766H130.718L143.751 28.6305H138.757L136.934 24.7136H123.633L121.81 28.6305H116.812ZM134.84 20.186L130.248 10.2611L125.657 20.186H134.84Z" fill="white"></path><path d="M148.211 28.6307V0.541016H157.464C163.811 0.541016 166.986 5.06542 166.986 9.65697C166.986 14.1814 163.811 18.7058 157.464 18.7058H153.004V28.6307H148.211ZM153.071 5.06542V14.1814H157.528C163.607 14.1814 163.607 5.06542 157.528 5.06542H153.071Z" fill="white"></path><path d="M174.203 0.541016L180.685 12.4867L187.166 0.541016H192.365L183.112 17.4875V28.6275H178.322V17.4875L169.068 0.541016H174.203Z" fill="white"></path><path d="M196.893 0.541016H205.2C214.789 0.608162 219.582 7.62978 219.582 14.5842C219.582 21.5387 214.789 28.5603 205.2 28.6275H196.893V0.541016ZM201.686 4.99827V24.0423H204.995C217.689 24.0423 217.756 4.99827 204.995 4.99827H201.686Z" fill="white"></path><path d="M49.2226 39.8404H45.101C44.5127 39.8468 44.0299 39.3736 44.0235 38.7853C44.0235 38.7789 44.0235 38.7693 44.0235 38.7629V34.6382C44.0171 34.0498 44.4903 33.567 45.0787 33.5606C45.0851 33.5606 45.0947 33.5606 45.101 33.5606H49.2194C49.8077 33.5542 50.2905 34.0274 50.2969 34.6158C50.2969 34.6222 50.2969 34.6318 50.2969 34.6382V38.7565C50.2617 39.3352 49.8045 39.7988 49.2226 39.8404Z" fill="#EF9F32"></path><path d="M8.57558 46.1201C7.34775 46.1105 6.35654 45.1193 6.34695 43.8915V8.91451C6.35654 7.68668 7.34775 6.69547 8.57558 6.68588H41.73C42.9578 6.69547 43.949 7.68668 43.9586 8.91451V26.3342C43.9586 26.67 44.2272 26.9418 44.5629 26.9418C44.5661 26.9418 44.5661 26.9418 44.5693 26.9418H49.6341C49.9698 26.9418 50.2416 26.6732 50.2416 26.3374C50.2416 26.3342 50.2416 26.3342 50.2416 26.3311V2.83614C50.232 1.27259 48.969 0.00959237 47.4055 0H2.83614C1.27259 0.00959237 0.00959237 1.27259 0 2.83614V49.8324C0.00959237 51.3959 1.27259 52.6589 2.83614 52.6685H47.3991C48.9626 52.6589 50.2256 51.3959 50.2352 49.8324V46.6573C50.2352 46.3215 49.9666 46.0498 49.6309 46.0498H49.6277L8.57558 46.1201Z" fill="white"></path><path d="M16.8802 39.8399C16.3239 39.8719 15.7739 39.7024 15.3263 39.3667C14.965 39.1237 14.7411 38.724 14.7188 38.2892V14.9925C14.7411 14.5576 14.965 14.158 15.3263 13.9149C15.7675 13.5696 16.3207 13.4002 16.8802 13.4417H25.1872C27.2144 13.3906 29.232 13.7359 31.1281 14.4553C32.6373 15.0117 33.9514 15.9965 34.9075 17.2915C36.7588 19.9997 36.5925 23.6064 34.5014 26.1356C33.1329 27.6096 31.3391 28.6264 29.3695 29.0389C30.447 30.3211 31.6621 31.8751 33.0146 33.6976C34.0921 35.0437 34.9011 36.1277 35.5118 36.9398C35.9083 37.3683 36.2057 37.8735 36.3879 38.4266C36.3783 38.8487 36.1481 39.2324 35.7804 39.4402C35.3391 39.7248 34.8212 39.8655 34.2936 39.8463H31.5278C31.1281 39.8623 30.7316 39.7696 30.3799 39.5777C30.0601 39.453 29.7788 39.2452 29.5709 38.9702L22.5461 29.5121H21.2V38.2252C21.1776 38.6601 20.9538 39.0597 20.5925 39.3027C20.148 39.6385 19.5981 39.8047 19.0385 39.776H16.8738V39.8399H16.8802ZM21.2 18.0301V24.7831H25.2512C26.4534 24.8726 27.6557 24.5912 28.6948 23.9741C29.443 23.3698 29.8491 22.4362 29.7724 21.4769C29.7724 19.1812 28.2856 18.0333 25.248 18.0333L21.2 18.0301Z" fill="#EF9F32"></path><path d="M219.579 37.6563H62.7949V36.7578H219.579V37.6563Z" fill="#EF9F32"></path><path d="M62.7969 45.6797H64.0119V52.2281H62.7969V45.6797Z" fill="white"></path><path d="M70.1545 47.7741C70.5606 48.209 70.7556 48.8005 70.6949 49.392V52.2282H69.547V49.5263C69.5502 49.1618 69.4319 48.8037 69.208 48.5127C68.9746 48.2825 68.6581 48.161 68.3319 48.1738C67.9514 48.1642 67.5869 48.3113 67.3183 48.5799C67.0242 48.8868 66.8771 49.3057 66.9123 49.7278V52.225H65.7676V47.2273H66.8451V47.902C67.0498 47.6686 67.3024 47.4863 67.5869 47.3616C67.9035 47.2178 68.252 47.1474 68.6005 47.1602C69.1825 47.1346 69.7484 47.3552 70.1545 47.7741Z" fill="white"></path><path d="M76.7065 47.7741C77.1126 48.2089 77.3076 48.8005 77.2469 49.392V52.2281H76.1693V49.5263C76.1725 49.1618 76.0542 48.8037 75.8304 48.5127C75.597 48.2825 75.2804 48.161 74.9543 48.1738C74.5738 48.1642 74.2093 48.3113 73.9407 48.5798C73.6465 48.8868 73.4994 49.3057 73.5346 49.7277V52.2249H72.3867V47.2273H73.4643V47.902C73.6689 47.6686 73.9215 47.4863 74.2061 47.3616C74.5226 47.2177 74.8711 47.1474 75.2197 47.1602C75.7792 47.1346 76.326 47.3584 76.7065 47.7741Z" fill="white"></path><path d="M79.8791 51.9592C79.4699 51.7546 79.1405 51.422 78.9327 51.0128C78.7121 50.5971 78.5938 50.1367 78.5938 49.6666C78.6033 49.1966 78.7185 48.7362 78.9327 48.3205C79.1405 47.9304 79.4731 47.6235 79.8791 47.4444C80.298 47.2302 80.7584 47.1151 81.2253 47.1055C81.6953 47.1055 82.1589 47.2206 82.5714 47.4444C82.9615 47.6458 83.2876 47.9496 83.5178 48.3205C83.7385 48.7362 83.8568 49.1966 83.8568 49.6666C83.8472 50.1367 83.7321 50.5971 83.5178 51.0128C83.294 51.406 82.9679 51.7322 82.5714 51.9592C82.1525 52.1734 81.6921 52.2885 81.2253 52.2981C80.7552 52.3205 80.2852 52.2022 79.8791 51.9592ZM82.3092 50.8817C82.8496 50.2102 82.8496 49.2542 82.3092 48.5859C81.6889 48.0455 80.768 48.0455 80.1477 48.5859C79.6073 49.2574 79.6073 50.2134 80.1477 50.8817C80.768 51.422 81.6921 51.422 82.3092 50.8817Z" fill="white"></path><path d="M89.7353 47.2305L87.5738 52.2281H86.3587L84.1973 47.2305H85.4123L86.9663 50.9427L88.5842 47.2305H89.7353Z" fill="white"></path><path d="M94.1244 47.7031C94.5624 48.1219 94.7863 48.7167 94.7319 49.321V52.2243H93.6544V51.6167C93.5169 51.8438 93.2994 52.0132 93.0468 52.09C92.7527 52.2275 92.4265 52.2978 92.1004 52.2914C91.7519 52.2978 91.4065 52.2275 91.0868 52.09C90.8342 51.9493 90.604 51.767 90.4121 51.5496C90.2746 51.3258 90.2043 51.07 90.2107 50.8078C90.1787 50.3921 90.3578 49.9892 90.6839 49.7302C91.1443 49.4297 91.6879 49.2858 92.2379 49.3242H93.5201V49.257C93.5233 48.9533 93.3986 48.6623 93.1811 48.4481C92.9125 48.2402 92.5736 48.1443 92.2347 48.1795C91.9597 48.1923 91.6879 48.237 91.4257 48.3138C91.1827 48.3841 90.9525 48.4992 90.7511 48.6527L90.2778 47.7766C90.572 47.5784 90.8886 47.4217 91.2243 47.3034C91.5952 47.1883 91.9853 47.1435 92.3722 47.1691C93.0021 47.1371 93.6192 47.3258 94.1244 47.7031ZM93.0468 51.281C93.2739 51.1435 93.4433 50.9261 93.5201 50.6735V50.066H92.3018C91.6272 50.066 91.2882 50.2674 91.2882 50.7406C91.2627 50.9421 91.3714 51.1339 91.5568 51.2139C91.7487 51.361 91.9885 51.4313 92.2315 51.4153C92.5097 51.4793 92.8006 51.4313 93.0468 51.281Z" fill="white"></path><path d="M99.3248 51.959C99.1937 52.0869 99.0306 52.1796 98.8516 52.2275C98.6533 52.2819 98.4487 52.3075 98.244 52.2947C97.7804 52.3171 97.3264 52.1732 96.9619 51.8886C96.6357 51.5433 96.4631 51.0797 96.4886 50.6064V48.1764H95.6797V47.2299H96.4886V46.082H97.6365V47.2299H98.9827V48.1764H97.6365V50.5393C97.6109 50.923 97.9019 51.2555 98.2856 51.2811C98.3176 51.2843 98.3496 51.2843 98.3815 51.2811C98.6213 51.2875 98.858 51.2171 99.0562 51.0797L99.3248 51.959Z" fill="white"></path><path d="M100.539 46.2202C100.277 45.9708 100.267 45.5583 100.517 45.2961C100.523 45.2897 100.53 45.2801 100.539 45.2737C100.849 45.0051 101.307 45.0051 101.617 45.2737C101.751 45.3952 101.825 45.5679 101.818 45.7469C101.844 46.1306 101.553 46.4632 101.169 46.4887C101.137 46.4919 101.105 46.4919 101.073 46.4887C100.881 46.4408 100.696 46.3481 100.539 46.2202ZM100.472 47.2337H101.62V52.2314H100.472V47.2337Z" fill="white"></path><path d="M108.034 47.2305L105.873 52.2281H104.658L102.496 47.2305H103.711L105.265 50.9427L106.883 47.2305H108.034Z" fill="white"></path><path d="M113.506 50.1345H109.589C109.66 50.483 109.851 50.7932 110.13 51.0106C110.884 51.5286 111.901 51.4423 112.56 50.8092L113.167 51.551C112.934 51.826 112.63 52.037 112.291 52.1585C111.453 52.4686 110.526 52.4207 109.727 52.0242C109.318 51.8196 108.988 51.487 108.78 51.0778C108.56 50.6621 108.441 50.2016 108.441 49.7316C108.441 49.2808 108.557 48.8395 108.78 48.4494C109.004 48.0562 109.33 47.73 109.727 47.503C110.142 47.2824 110.603 47.1641 111.073 47.1641C111.524 47.1641 111.965 47.2792 112.355 47.503C112.726 47.7044 113.03 48.0082 113.231 48.3791C113.461 48.7916 113.577 49.2552 113.57 49.7252C113.516 49.8595 113.493 49.997 113.506 50.1345ZM110.063 48.4494C109.804 48.6733 109.634 48.9866 109.589 49.3255H112.425C112.381 48.9866 112.211 48.6733 111.952 48.4494C111.402 48.0018 110.616 48.0018 110.066 48.4494H110.063Z" fill="white"></path><path d="M114.653 52.0947C114.311 51.7974 114.276 51.2762 114.573 50.9341C114.87 50.5919 115.391 50.5568 115.734 50.8541C116.076 51.1515 116.111 51.6727 115.813 52.0148C115.657 52.1939 115.43 52.2962 115.193 52.2962C114.992 52.3026 114.8 52.229 114.653 52.0947Z" fill="white"></path><path d="M120.121 45.6797H121.336V52.2281H120.121V45.6797Z" fill="white"></path><path d="M127.549 47.7741C127.955 48.209 128.15 48.8005 128.089 49.392V52.2282H126.942V49.5263C126.945 49.1618 126.826 48.8037 126.603 48.5127C126.369 48.2825 126.053 48.161 125.726 48.1738C125.346 48.1642 124.981 48.3113 124.713 48.5799C124.419 48.8868 124.272 49.3057 124.307 49.7278V52.225H123.162V47.2273H124.24V47.902C124.444 47.6686 124.697 47.4863 124.981 47.3616C125.298 47.2178 125.647 47.1474 125.995 47.1602C126.577 47.1346 127.143 47.3552 127.549 47.7741Z" fill="white"></path><path d="M132.749 51.959C132.618 52.0869 132.454 52.1796 132.275 52.2275C132.077 52.2819 131.873 52.3075 131.668 52.2947C131.204 52.3171 130.75 52.1732 130.386 51.8886C130.06 51.5433 129.887 51.0797 129.912 50.6064V48.1764H129.104V47.2299H129.912V46.082H131.06V47.2299H132.406V48.1764H131.06V50.5393C131.035 50.923 131.326 51.2555 131.709 51.2811C131.741 51.2843 131.773 51.2843 131.805 51.2811C132.045 51.2875 132.282 51.2171 132.48 51.0797L132.749 51.959Z" fill="white"></path><path d="M138.42 50.1345H134.503C134.574 50.483 134.766 50.7932 135.044 51.0106C135.798 51.5286 136.815 51.4423 137.474 50.8092L138.081 51.551C137.848 51.826 137.544 52.037 137.205 52.1585C136.367 52.4686 135.44 52.4207 134.641 52.0242C134.232 51.8196 133.902 51.487 133.694 51.0778C133.474 50.6621 133.355 50.2016 133.355 49.7316C133.355 49.2808 133.471 48.8395 133.694 48.4494C133.918 48.0562 134.244 47.73 134.641 47.503C135.057 47.2824 135.517 47.1641 135.987 47.1641C136.438 47.1641 136.879 47.2792 137.269 47.503C137.64 47.7044 137.944 48.0082 138.145 48.3791C138.375 48.7916 138.491 49.2552 138.484 49.7252C138.43 49.8595 138.407 49.997 138.42 50.1345ZM134.977 48.4494C134.718 48.6733 134.548 48.9866 134.503 49.3255H137.339C137.295 48.9866 137.125 48.6733 136.866 48.4494C136.316 48.0018 135.53 48.0018 134.98 48.4494H134.977Z" fill="white"></path><path d="M139.77 45.2734H140.917V52.2279H139.77V45.2734Z" fill="white"></path><path d="M142.605 45.2734H143.753V52.2279H142.605V45.2734Z" fill="white"></path><path d="M145.578 46.2202C145.316 45.9708 145.306 45.5583 145.556 45.2961C145.562 45.2897 145.569 45.2801 145.578 45.2737C145.888 45.0051 146.346 45.0051 146.656 45.2737C146.79 45.3952 146.864 45.5679 146.857 45.7469C146.883 46.1306 146.592 46.4632 146.208 46.4887C146.176 46.4919 146.144 46.4919 146.112 46.4887C145.914 46.4568 145.725 46.3608 145.578 46.2202ZM145.511 47.2337H146.659V52.2314H145.508L145.511 47.2337Z" fill="white"></path><path d="M153.343 47.2332V51.489C153.343 53.2444 152.466 54.1237 150.641 54.1237C150.183 54.1269 149.729 54.0597 149.295 53.9222C148.898 53.8263 148.53 53.6409 148.217 53.3819L148.757 52.5058C148.981 52.72 149.263 52.8607 149.566 52.9118C149.893 53.0238 150.238 53.0685 150.58 53.0461C151.024 53.0813 151.462 52.9342 151.795 52.6401C152.089 52.3331 152.236 51.9142 152.201 51.4922V51.2236C151.996 51.441 151.741 51.6041 151.459 51.6968C150.721 51.9334 149.915 51.8599 149.231 51.4954C148.847 51.3131 148.537 51.003 148.355 50.6193C148.134 50.2292 148.016 49.7847 148.016 49.3371C148.022 48.8894 148.14 48.4482 148.355 48.0549C149.052 47.0253 150.382 46.6288 151.53 47.1085C151.817 47.2268 152.073 47.409 152.271 47.6488V46.9742H153.349V47.2332H153.343ZM151.789 50.6065C152.329 50.0405 152.329 49.1484 151.789 48.5793C151.494 48.3107 151.108 48.1636 150.711 48.1732C150.311 48.1508 149.918 48.2979 149.634 48.5793C149.093 49.1452 149.093 50.0373 149.634 50.6065C149.928 50.8751 150.315 51.0222 150.711 51.0126C151.108 51.0126 151.488 50.8687 151.789 50.6065Z" fill="white"></path><path d="M159.69 50.1345H155.773C155.843 50.483 156.035 50.7932 156.313 51.0106C157.068 51.5286 158.085 51.4423 158.743 50.8092L159.351 51.551C159.117 51.826 158.814 52.037 158.475 52.1585C157.637 52.4686 156.71 52.4207 155.91 52.0242C155.501 51.8196 155.172 51.487 154.964 51.0778C154.743 50.6621 154.625 50.2016 154.625 49.7316C154.625 49.2808 154.74 48.8395 154.964 48.4494C155.207 48.0689 155.53 47.7492 155.91 47.503C156.326 47.2824 156.786 47.1641 157.257 47.1641C157.707 47.1641 158.149 47.2792 158.539 47.503C158.91 47.7044 159.213 48.0082 159.415 48.3791C159.635 48.7948 159.754 49.2552 159.754 49.7252C159.763 49.8691 159.744 50.0098 159.69 50.1345ZM156.243 48.4494C155.984 48.6733 155.814 48.9866 155.77 49.3255H158.606C158.561 48.9866 158.392 48.6733 158.133 48.4494C157.867 48.2288 157.531 48.1105 157.186 48.1105C156.844 48.1201 156.515 48.2384 156.243 48.4494Z" fill="white"></path><path d="M165.362 47.775C165.768 48.2099 165.963 48.8014 165.902 49.3929V52.2291H164.754V49.5272C164.757 49.1627 164.639 48.8046 164.415 48.5136C164.182 48.2834 163.865 48.1619 163.539 48.1747C163.158 48.1651 162.794 48.3122 162.525 48.5808C162.231 48.8877 162.084 49.3066 162.119 49.7287V52.2259H160.975V47.2283H162.052V47.9029C162.257 47.6695 162.509 47.4872 162.794 47.3625C163.111 47.2187 163.459 47.1483 163.808 47.1611C164.389 47.1195 164.962 47.3466 165.362 47.775Z" fill="white"></path><path d="M170.628 51.959C170.496 52.0869 170.333 52.1796 170.154 52.2275C169.956 52.2819 169.751 52.3075 169.547 52.2947C169.083 52.3171 168.629 52.1732 168.265 51.8886C167.938 51.5433 167.766 51.0797 167.791 50.6064V48.1764H166.982V47.2299H167.791V46.082H168.939V47.2299H170.285V48.1764H168.939V50.5393C168.914 50.923 169.205 51.2555 169.588 51.2811C169.62 51.2843 169.652 51.2843 169.684 51.2811C169.924 51.2875 170.161 51.2171 170.359 51.0797L170.628 51.959Z" fill="white"></path><path d="M171.707 52.0947C171.365 51.7974 171.33 51.2762 171.628 50.9341C171.925 50.5919 172.446 50.5568 172.788 50.8541C173.13 51.1515 173.166 51.6727 172.868 52.0148C172.712 52.1939 172.484 52.2962 172.248 52.2962C172.046 52.3026 171.855 52.229 171.707 52.0947Z" fill="white"></path><path d="M177.176 45.6797H178.391V52.2281H177.176V45.6797Z" fill="white"></path><path d="M184.604 47.7736C185.01 48.2084 185.205 48.8 185.144 49.3915V52.2277H183.996V49.5258C183.999 49.1613 183.881 48.8032 183.657 48.5122C183.424 48.282 183.107 48.1605 182.781 48.1733C182.401 48.1637 182.036 48.3108 181.768 48.5794C181.473 48.8863 181.326 49.3052 181.361 49.7272V52.2245H180.217V47.2268H181.294V47.9015C181.499 47.6681 181.752 47.4858 182.036 47.3611C182.353 47.2172 182.701 47.1469 183.05 47.1597C183.628 47.1469 184.191 47.3675 184.604 47.7736Z" fill="white"></path><path d="M189.803 51.959C189.672 52.0869 189.509 52.1796 189.33 52.2275C189.132 52.2819 188.927 52.3075 188.723 52.2947C188.259 52.3171 187.805 52.1732 187.44 51.8886C187.085 51.5625 186.91 51.0861 186.967 50.6064V48.1764H186.158V47.2299H186.967V46.082H188.115V47.2299H189.461V48.1764H188.115V50.5393C188.089 50.923 188.38 51.2555 188.764 51.2811C188.796 51.2843 188.828 51.2843 188.86 51.2811C189.1 51.2875 189.336 51.2171 189.535 51.0797L189.803 51.959Z" fill="white"></path><path d="M195.816 47.2305V52.2281H194.738V51.6206C194.543 51.8348 194.316 52.0171 194.063 52.1609C193.788 52.292 193.491 52.3624 193.187 52.3624C192.618 52.3944 192.062 52.2025 191.633 51.822C191.227 51.3872 191.032 50.7956 191.093 50.2041V47.3648H192.241V50.0666C192.196 50.4279 192.292 50.7892 192.509 51.0802C192.743 51.3104 193.059 51.4319 193.386 51.4191C193.766 51.4287 194.131 51.2816 194.399 51.0131C194.671 50.6965 194.792 50.2776 194.738 49.8652V47.3648H195.816V47.2305Z" fill="white"></path><path d="M197.57 46.2202C197.308 45.9708 197.299 45.5583 197.548 45.2961C197.554 45.2897 197.561 45.2801 197.57 45.2737C197.881 45.0051 198.338 45.0051 198.648 45.2737C198.782 45.3952 198.856 45.5679 198.849 45.7469C198.875 46.1306 198.584 46.4632 198.2 46.4887C198.168 46.4919 198.136 46.4919 198.104 46.4887C197.909 46.4408 197.727 46.3481 197.57 46.2202ZM197.5 47.2337H198.648V52.2314H197.5V47.2337Z" fill="white"></path><path d="M203.376 51.959C203.244 52.0869 203.081 52.1796 202.902 52.2275C202.704 52.2819 202.499 52.3075 202.295 52.2947C201.831 52.3171 201.377 52.1732 201.013 51.8886C200.687 51.5433 200.514 51.0797 200.539 50.6064V48.1764H199.73V47.2299H200.539V46.082H201.687V47.2299H203.033V48.1764H201.687V50.5393C201.662 50.923 201.953 51.2555 202.336 51.2811C202.368 51.2843 202.4 51.2843 202.432 51.2811C202.672 51.2875 202.909 51.2171 203.107 51.0797L203.376 51.959Z" fill="white"></path><path d="M204.59 46.2202C204.328 45.9708 204.318 45.5583 204.568 45.2961C204.574 45.2897 204.58 45.2801 204.59 45.2737C204.9 45.0051 205.357 45.0051 205.667 45.2737C205.802 45.3952 205.875 45.5679 205.869 45.7469C205.895 46.1306 205.604 46.4632 205.22 46.4887C205.188 46.4919 205.156 46.4919 205.124 46.4887C204.932 46.4408 204.747 46.3481 204.59 46.2202ZM204.523 47.2337H205.671V52.2314H204.523V47.2337Z" fill="white"></path><path d="M212.085 47.2305L209.923 52.2281H208.708L206.547 47.2305H207.762L209.316 50.9427L210.934 47.2305H212.085Z" fill="white"></path><path d="M217.491 50.1345H213.574C213.644 50.483 213.836 50.7932 214.114 51.0106C214.869 51.5286 215.885 51.4423 216.544 50.8092L217.152 51.551C216.918 51.826 216.614 52.037 216.276 52.1585C215.438 52.4686 214.511 52.4207 213.711 52.0242C213.302 51.8196 212.973 51.487 212.765 51.0778C212.544 50.6621 212.426 50.2016 212.426 49.7316C212.426 49.2808 212.541 48.8395 212.765 48.4494C212.989 48.0562 213.315 47.73 213.711 47.503C214.127 47.2824 214.587 47.1641 215.057 47.1641C215.508 47.1641 215.949 47.2792 216.339 47.503C216.71 47.7044 217.014 48.0082 217.216 48.3791C217.436 48.7948 217.554 49.2552 217.554 49.7252C217.558 49.8659 217.491 50.0002 217.491 50.1345ZM214.044 48.4494C213.785 48.6733 213.615 48.9866 213.57 49.3255H216.407C216.362 48.9866 216.192 48.6733 215.933 48.4494C215.668 48.2288 215.332 48.1105 214.987 48.1105C214.642 48.1201 214.309 48.2384 214.037 48.4494H214.044Z" fill="white"></path><path d="M218.637 52.0947C218.295 51.7974 218.26 51.2762 218.557 50.9341C218.855 50.5919 219.376 50.5568 219.718 50.8541C220.06 51.1515 220.095 51.6727 219.798 52.0148C219.641 52.1939 219.414 52.2962 219.178 52.2962C218.979 52.2898 218.787 52.2194 218.637 52.0947Z" fill="white"></path></svg>